<?xml version="1.0" encoding="UTF-8" standalone="no"?>
<!-- Created with Inkscape (http://www.inkscape.org/) -->

<svg
   width="220mm"
   height="150mm"
   viewBox="0 0 219.99999 150"
   version="1.1"
   id="svg1"
   sodipodi:docname="favicorn.svg"
   inkscape:export-filename="favicorn.png"
   inkscape:export-xdpi="96"
   inkscape:export-ydpi="96"
   inkscape:version="1.4.2 (f4327f4, 2025-05-13)"
   xmlns:inkscape="http://www.inkscape.org/namespaces/inkscape"
   xmlns:sodipodi="http://sodipodi.sourceforge.net/DTD/sodipodi-0.dtd"
   xmlns="http://www.w3.org/2000/svg"
   xmlns:svg="http://www.w3.org/2000/svg">
  <sodipodi:namedview
     id="namedview1"
     pagecolor="#505050"
     bordercolor="#eeeeee"
     borderopacity="1"
     inkscape:showpageshadow="0"
     inkscape:pageopacity="0"
     inkscape:pagecheckerboard="0"
     inkscape:deskcolor="#505050"
     inkscape:document-units="mm"
     inkscape:zoom="0.25974144"
     inkscape:cx="656.42203"
     inkscape:cy="144.37435"
     inkscape:window-width="1920"
     inkscape:window-height="1051"
     inkscape:window-x="-9"
     inkscape:window-y="-9"
     inkscape:window-maximized="1"
     inkscape:current-layer="layer1" />
  <defs
     id="defs1" />
  <g
     id="layer1">
    <g
       id="layer1-1"
       transform="matrix(3.7323423,0.39049559,-0.36568865,3.4530328,-369.63532,-590.82463)">
      <g
         id="Objects"
         transform="matrix(-2.0388018e-4,0.0212057,-0.0221302,-1.953635e-4,187.06337,152.26906)">
        <g
           id="g6">
          <path
             style="fill:#ffffff"
             d="m 182.071,1547.467 c 0,-506.958 410.971,-917.929 917.929,-917.929 506.958,0 917.929,410.971 917.929,917.929 z"
             id="path1" />
          <path
             style="fill:#e24242;fill-opacity:1"
             d="M 831.075,1044.578 C 670.348,1137.57 562.224,1311.352 562.224,1510.379 H 182.071 c 0,-339.726 184.562,-636.356 458.89,-795.081 z"
             id="path2" />
          <path
             style="fill:#ffc648"
             d="m 1559.039,715.298 -190.101,329.28 C 1289.829,998.799 1197.974,972.602 1100,972.602 c -97.974,0 -189.817,26.197 -268.925,71.976 L 640.962,715.298 C 775.999,637.166 932.77,592.45 1100,592.45 c 167.23,0 324.001,44.716 459.039,122.848 z"
             id="path3" />
          <path
             style="fill:#72bf58;fill-opacity:1"
             d="m 2017.929,1510.379 h -380.152 c 0,-199.027 -108.124,-372.809 -268.839,-465.801 l 190.101,-329.28 c 274.327,158.725 458.89,455.355 458.89,795.081 z"
             id="path4" />
          <path
             style="fill:#000000;fill-opacity:0"
             d="M 1979.951,1138.633 C 1931.848,1024.909 1862.987,922.781 1775.299,835.08 1687.598,747.379 1585.47,678.531 1471.746,630.428 1353.979,580.619 1228.906,555.362 1100,555.362 c -128.906,0 -253.979,25.257 -371.746,75.066 -113.724,48.104 -215.852,116.951 -303.553,204.652 -87.688,87.701 -156.549,189.829 -204.652,303.553 -49.809,117.767 -75.066,242.84 -75.066,371.746 0,20.485 16.603,37.088 37.088,37.088 h 825.159 v -74.176 H 219.913 c 4.352,-105.825 27.322,-208.521 68.452,-305.766 44.357,-104.885 107.877,-199.089 188.79,-279.99 80.901,-80.914 175.105,-144.433 279.99,-188.79 108.569,-45.927 223.925,-69.206 342.854,-69.206 118.929,0 234.285,23.279 342.854,69.206 104.885,44.357 199.088,107.877 279.99,188.79 80.914,80.901 144.433,175.105 188.79,279.99 41.131,97.245 64.1,199.942 68.452,305.766 H 1192.77 v 74.176 h 825.159 c 20.485,0 37.088,-16.603 37.088,-37.088 0,-128.906 -25.257,-253.979 -75.066,-371.746 z"
             id="path5" />
          <path
             style="fill:#2d2d2d"
             d="M 1014.2603,1380.0174 C 687.0861,1229.2057 428.42802,1131.5787 415.05764,1155.9585 c -13.37038,24.3799 223.09235,162.478 545.9584,321.1454 0.2213,47.2156 29.93514,93.8571 80.68736,118.02 70.6941,33.657 155.4173,10.9469 189.241,-50.7278 33.8237,-61.6746 3.9361,-138.9502 -66.7591,-172.6076 -50.7527,-24.1619 -108.7293,-19.2684 -149.925,8.2289 z m 139.66,127.7091 c -13.4717,24.5644 -47.2077,33.6083 -75.3657,20.2025 -28.1572,-13.4056 -40.0591,-44.1763 -26.587,-68.7415 13.4721,-24.5653 47.2075,-33.6084 75.3658,-20.2024 28.158,13.4059 40.0585,44.177 26.5869,68.7414 z"
             id="path6" />
        </g>
      </g>
    </g>
    <path
       d="M -3.8853268,164.3432 Z M 104.25261,17.761459 q -0.58963,4.127402 -3.41985,6.721769 -2.830215,2.476441 -8.844429,2.476441 H 44.818019 L 32.907516,67.879914 q 11.792578,-2.594367 21.934195,-2.594367 10.731245,0 18.750198,3.183996 8.018953,3.06607 13.325613,8.608582 5.424586,5.424586 8.136879,12.971836 2.712293,7.429324 2.712293,16.037909 0,13.56146 -4.952883,24.64648 -4.952883,11.08503 -13.325613,18.98605 -8.37273,7.78311 -19.575679,12.02843 -11.202949,4.24533 -23.703081,4.24533 -6.72177,0 -12.618059,-1.29718 -5.896288,-1.29719 -10.967097,-3.53778 -4.9528826,-2.24059 -9.1982106,-5.18873 -4.12740223,-2.94814 -7.3113982,-6.13214 l 6.7217693,-8.13688 q 2.3585156,-2.71229 5.4245858,-2.71229 2.1226637,0 4.4811797,1.65096 2.476441,1.65096 6.014215,3.77362 3.537773,2.00474 8.490656,3.6557 4.952882,1.65096 12.028429,1.65096 8.844433,0 16.037906,-3.06607 7.193472,-3.18399 12.264281,-8.60858 5.188734,-5.54251 8.018953,-13.08976 2.830218,-7.66517 2.830218,-16.74546 0,-6.13214 -1.886812,-11.085023 -1.768887,-4.952882 -5.424586,-8.490656 -3.655699,-3.537773 -9.198211,-5.424586 -5.424585,-2.004738 -12.853909,-2.004738 -5.660438,0 -12.02843,1.061332 -6.250066,0.943406 -12.971835,2.948145 L 12.506356,81.67723 33.615071,9.3887284 h 71.580949 z"
       id="text3"
       style="font-style:italic;font-size:241.512px;font-family:Carlito;-inkscape-font-specification:'Carlito, Italic';fill:#72bf58;stroke-width:20.1262"
       transform="matrix(1.1170594,-0.05527438,0.05260421,0.89260457,0,0)"
       aria-label="5" />
  </g>
</svg>
