<?xml version="1.0" encoding="UTF-8" standalone="no"?>
<!-- Created with Inkscape (http://www.inkscape.org/) -->

<svg
   width="380.25964mm"
   height="179.35362mm"
   viewBox="0 0 380.25964 179.35362"
   version="1.1"
   id="svg1"
   xmlns="http://www.w3.org/2000/svg"
   xmlns:svg="http://www.w3.org/2000/svg">
  <defs
     id="defs1" />
  <g
     id="layer1"
     transform="translate(-57.954901,-40.45312)">
    <g
       id="layer1-1"
       transform="matrix(1.5947996,0.20278293,-0.1781477,1.5704317,114.42061,-161.82)">
      <g
         id="Objects"
         transform="matrix(-2.0388018e-4,0.0212057,-0.0221302,-1.953635e-4,184.79807,152.57474)">
        <g
           id="g6">
          <path
             style="fill:#ffffff"
             d="m 182.071,1547.467 c 0,-506.958 410.971,-917.929 917.929,-917.929 506.958,0 917.929,410.971 917.929,917.929 z"
             id="path1" />
          <path
             style="fill:#e24242;fill-opacity:1"
             d="M 831.075,1044.578 C 670.348,1137.57 562.224,1311.352 562.224,1510.379 H 182.071 c 0,-339.726 184.562,-636.356 458.89,-795.081 z"
             id="path2" />
          <path
             style="fill:#ffc648"
             d="m 1559.039,715.298 -190.101,329.28 C 1289.829,998.799 1197.974,972.602 1100,972.602 c -97.974,0 -189.817,26.197 -268.925,71.976 L 640.962,715.298 C 775.999,637.166 932.77,592.45 1100,592.45 c 167.23,0 324.001,44.716 459.039,122.848 z"
             id="path3" />
          <path
             style="fill:#72bf58;fill-opacity:1"
             d="m 2017.929,1510.379 h -380.152 c 0,-199.027 -108.124,-372.809 -268.839,-465.801 l 190.101,-329.28 c 274.327,158.725 458.89,455.355 458.89,795.081 z"
             id="path4" />
          <path
             style="fill:#000000;fill-opacity:0"
             d="M 1979.951,1138.633 C 1931.848,1024.909 1862.987,922.781 1775.299,835.08 1687.598,747.379 1585.47,678.531 1471.746,630.428 1353.979,580.619 1228.906,555.362 1100,555.362 c -128.906,0 -253.979,25.257 -371.746,75.066 -113.724,48.104 -215.852,116.951 -303.553,204.652 -87.688,87.701 -156.549,189.829 -204.652,303.553 -49.809,117.767 -75.066,242.84 -75.066,371.746 0,20.485 16.603,37.088 37.088,37.088 h 825.159 v -74.176 H 219.913 c 4.352,-105.825 27.322,-208.521 68.452,-305.766 44.357,-104.885 107.877,-199.089 188.79,-279.99 80.901,-80.914 175.105,-144.433 279.99,-188.79 108.569,-45.927 223.925,-69.206 342.854,-69.206 118.929,0 234.285,23.279 342.854,69.206 104.885,44.357 199.088,107.877 279.99,188.79 80.914,80.901 144.433,175.105 188.79,279.99 41.131,97.245 64.1,199.942 68.452,305.766 H 1192.77 v 74.176 h 825.159 c 20.485,0 37.088,-16.603 37.088,-37.088 0,-128.906 -25.257,-253.979 -75.066,-371.746 z"
             id="path5" />
          <path
             style="fill:#2d2d2d"
             d="M 1014.2603,1380.0174 C 687.0861,1229.2057 428.42802,1131.5787 415.05764,1155.9585 c -13.37038,24.3799 223.09235,162.478 545.9584,321.1454 0.2213,47.2156 29.93514,93.8571 80.68736,118.02 70.6941,33.657 155.4173,10.9469 189.241,-50.7278 33.8237,-61.6746 3.9361,-138.9502 -66.7591,-172.6076 -50.7527,-24.1619 -108.7293,-19.2684 -149.925,8.2289 z m 139.66,127.7091 c -13.4717,24.5644 -47.2077,33.6083 -75.3657,20.2025 -28.1572,-13.4056 -40.0591,-44.1763 -26.587,-68.7415 13.4721,-24.5653 47.2075,-33.6084 75.3658,-20.2024 28.158,13.4059 40.0585,44.177 26.5869,68.7414 z"
             id="path6" />
        </g>
      </g>
    </g>
    <path
       d="M 44.196312,196.72217 Z M 144.15469,61.227883 q -0.54503,3.815205 -3.16117,6.213334 -2.61614,2.289123 -8.17544,2.289123 H 89.215733 l -11.009592,37.82503 q 10.900586,-2.39813 20.27509,-2.39813 9.919529,0 17.331929,2.94316 7.4124,2.83416 12.31767,7.95743 5.01426,5.01427 7.5214,11.99065 2.50713,6.86736 2.50713,14.82479 0,12.53568 -4.57824,22.78223 -4.57825,10.24655 -12.31766,17.54994 -7.73942,7.19439 -18.09498,11.1186 -10.355554,3.92421 -21.910175,3.92421 -6.213334,0 -11.663627,-1.19906 -5.450293,-1.19907 -10.137545,-3.27018 -4.578246,-2.07111 -8.502457,-4.79626 -3.815206,-2.72514 -6.758364,-5.6683 l 6.213334,-7.52141 q 2.180117,-2.50713 5.01427,-2.50713 1.962105,0 4.142223,1.52608 2.289123,1.52608 5.559298,3.48819 3.270176,1.8531 7.848422,3.37918 4.578247,1.52608 11.118598,1.52608 8.17544,0 14.824797,-2.83415 6.649356,-2.94316 11.336606,-7.95743 4.79626,-5.12327 7.4124,-12.09965 2.61614,-7.08538 2.61614,-15.47883 0,-5.66831 -1.74409,-10.24655 -1.63509,-4.57825 -5.01427,-7.84842 -3.37918,-3.27018 -8.50246,-5.01427 -5.01427,-1.8531 -11.881636,-1.8531 -5.232282,0 -11.118598,0.98105 -5.777311,0.87205 -11.990645,2.72515 L 59.348127,120.30906 78.860176,53.488467 h 66.166554 z"
       id="text3"
       style="font-style:italic;font-size:223.244px;font-family:Carlito;-inkscape-font-specification:'Carlito, Italic';fill:#72bf58;stroke-width:18.6039"
       transform="matrix(1.0970303,-0.05628356,0.051661,0.90890136,0,0)"
       aria-label="5" />
    <path
       d="m 186.38444,82.79077 -2.80687,23.01635 h -8.18671 l 7.53177,-61.470497 h 17.35583 c 3.33706,0 6.23749,0.389843 8.7013,1.16953 2.46381,0.779687 4.491,1.886842 6.08156,3.321466 1.62175,1.434623 2.82246,3.165528 3.60215,5.192713 0.77969,1.995998 1.16953,4.225902 1.16953,6.689712 0,3.212309 -0.54578,6.175118 -1.63734,8.888428 -1.06037,2.682122 -2.61975,5.005588 -4.67812,6.970399 -2.05837,1.96481 -4.60015,3.492996 -7.62534,4.584557 -3.02518,1.091561 -6.48699,1.637342 -10.38542,1.637342 z m 3.9764,-32.045122 -3.18112,25.589317 h 9.12234 c 2.46381,0 4.64693,-0.37425 6.54936,-1.122749 1.90244,-0.748499 3.493,-1.777686 4.77169,-3.087559 1.27869,-1.309874 2.2455,-2.869247 2.90043,-4.67812 0.68613,-1.840061 1.02919,-3.836059 1.02919,-5.987994 0,-3.305871 -0.998,-5.910025 -2.994,-7.812461 -1.96481,-1.933623 -4.98999,-2.900434 -9.07555,-2.900434 z m 90.52163,19.928791 c 0,3.492997 -0.37425,6.798868 -1.12275,9.917615 -0.71731,3.118747 -1.76209,6.003587 -3.13434,8.654522 -1.37225,2.650935 -3.02518,5.036776 -4.95881,7.157524 -1.93362,2.120748 -4.10115,3.92962 -6.50259,5.42662 -2.37025,1.497 -4.9588,2.65094 -7.76567,3.46181 -2.77569,0.77969 -5.70731,1.16953 -8.79487,1.16953 -3.77369,0 -7.17312,-0.67053 -10.1983,-2.01159 -3.02519,-1.34107 -5.59815,-3.21232 -7.7189,-5.613748 -2.08956,-2.401435 -3.71131,-5.239494 -4.86525,-8.514178 -1.12275,-3.305872 -1.68412,-6.923618 -1.68412,-10.853239 0,-5.208307 0.81087,-9.995583 2.43262,-14.361829 1.65294,-4.397433 3.91403,-8.18671 6.78328,-11.367831 2.86925,-3.181122 6.26868,-5.660526 10.1983,-7.438211 3.96081,-1.777686 8.23349,-2.666529 12.81805,-2.666529 3.77368,0 7.17311,0.686124 10.1983,2.058373 3.02519,1.341061 5.59815,3.212309 7.7189,5.613744 2.12075,2.401435 3.74249,5.255089 4.86524,8.56096 1.15394,3.305871 1.73091,6.908024 1.73091,10.806457 z m -8.51418,0.187125 c 0,-3.087559 -0.38984,-5.878838 -1.16953,-8.373835 -0.77969,-2.526185 -1.90244,-4.662526 -3.36825,-6.409024 -1.46581,-1.777686 -3.25909,-3.149935 -5.37984,-4.116746 -2.08956,-0.966811 -4.45981,-1.450217 -7.11074,-1.450217 -3.33706,0 -6.40902,0.686124 -9.21589,2.058373 -2.77569,1.341061 -5.17712,3.274684 -7.20431,5.800869 -1.996,2.494997 -3.55537,5.520182 -4.67812,9.075553 -1.12275,3.524183 -1.68412,7.469398 -1.68412,11.835643 0,3.087559 0.38984,5.878838 1.16953,8.373835 0.77969,2.494997 1.90243,4.631339 3.36824,6.409025 1.46581,1.777685 3.2435,3.149934 5.33306,4.116746 2.12075,0.935624 4.49099,1.403436 7.11074,1.403436 3.36825,0 6.44021,-0.670531 9.2159,-2.011592 2.80687,-1.341061 5.20831,-3.259091 7.2043,-5.754088 2.02719,-2.494997 3.60216,-5.504588 4.72491,-9.028772 1.12275,-3.555371 1.68412,-7.531773 1.68412,-11.929206 z m 23.95197,34.945556 h -8.32705 l 7.53177,-61.470497 h 8.28028 z m 26.57173,-61.470497 c 0.71731,0 1.24749,0.07797 1.59056,0.233906 0.34306,0.155937 0.68612,0.545781 1.02918,1.16953 l 27.69447,46.640858 c 0.0624,-0.654937 0.10918,-1.278687 0.14035,-1.871248 0.0624,-0.623749 0.12477,-1.200718 0.18712,-1.730905 l 5.52018,-44.442141 h 7.29787 l -7.53177,61.470497 h -4.16353 c -0.65493,0 -1.20071,-0.12475 -1.63734,-0.37425 -0.43663,-0.2495 -0.82647,-0.65494 -1.16953,-1.21631 l -27.74125,-46.640857 -0.0936,1.590561 c -0.0312,0.530187 -0.078,1.013592 -0.14035,1.450217 l -5.56696,45.190639 h -7.25109 l 7.57856,-61.470497 h 4.25709 z m 96.13537,0 -0.84206,6.876837 h -18.10433 l -6.68971,54.59366 h -8.18671 l 6.64293,-54.59366 h -18.10432 l 0.79528,-6.876837 z"
       id="text12"
       style="font-style:italic;font-size:95.8079px;font-family:Carlito;-inkscape-font-specification:'Carlito, Italic';fill:#000000;stroke-width:0.716873;fill-opacity:1"
       aria-label="POINT"
       transform="scale(1.0457898,0.9562151)" />
    <path
       d="m 200.249,189.49193 q 1.10169,-0.14215 1.848,-0.35539 0.74631,-0.21323 1.35046,-0.56861 l 3.05631,-19.22633 q -1.13723,-0.67523 -3.05631,-0.924 l 0.17769,-1.31493 h 8.42263 q 3.58939,0 5.36631,1.24385 1.81247,1.24385 1.81247,3.58939 0,2.52323 -1.38601,4.158 -1.35046,1.59924 -3.94477,2.20339 1.95462,0.60416 3.02077,1.88354 1.1017,1.24385 1.1017,3.02077 0,2.09678 -1.03062,3.83816 -0.99508,1.70585 -3.09185,2.73647 -2.09677,1.03061 -5.22416,1.03061 h -8.63585 z m 10.16401,-12.04755 q 2.772,0 4.22908,-1.35047 1.45708,-1.386 1.45708,-4.12246 0,-1.63477 -1.06616,-2.41662 -1.06615,-0.78185 -3.30508,-0.78185 -0.924,0.0355 -1.35046,0.14216 -0.42646,0.0711 -0.63969,0.39092 -0.1777,0.28431 -0.28431,0.95954 l -1.13723,7.17878 z m -1.27939,11.62109 q 2.59431,0 4.12247,-1.52816 1.56369,-1.56369 1.56369,-4.3357 0,-1.91907 -1.27938,-2.94969 -1.24385,-1.06616 -3.76709,-1.06616 h -1.70584 l -1.27939,7.85401 q -0.10662,0.95954 -0.10662,0.95954 0,0.53308 0.53308,0.81739 0.56862,0.24877 1.91908,0.24877 z m 17.094,1.99015 q -2.9497,0 -4.3357,-1.70584 -1.35046,-1.74139 -1.35046,-4.12247 0,-3.37616 1.10169,-5.93493 1.10169,-2.59431 3.09185,-3.98031 1.99016,-1.42154 4.54893,-1.42154 2.41662,0 3.62492,1.10169 1.24385,1.10169 1.24385,2.66539 0,1.70585 -1.35046,3.12739 -1.35046,1.42154 -3.73154,2.27446 -2.34554,0.81739 -5.29524,0.81739 v 0.81738 q 0,2.27447 0.85292,3.4117 0.85293,1.10169 2.31001,1.10169 1.99015,0 4.86877,-2.16785 l 1.03062,1.31493 q -1.1017,1.10169 -2.87862,1.91908 -1.77693,0.78184 -3.73154,0.78184 z m -2.27447,-8.92016 q 2.09677,0 3.69601,-0.56862 1.59923,-0.60415 2.48769,-1.63477 0.88846,-1.03061 0.88846,-2.34554 0,-0.85292 -0.53307,-1.45708 -0.49754,-0.60415 -1.45708,-0.60415 -1.95462,0 -3.30508,1.848 -1.31493,1.848 -1.77693,4.76216 z m 15.45928,8.92016 q -1.42154,0 -2.16785,-0.7463 -0.71077,-0.78185 -0.71077,-2.16785 0,-1.1017 1.59923,-10.94586 l 0.17769,-1.06616 h -2.55877 l 0.21323,-1.17277 q 1.45708,-0.39092 2.34554,-0.95954 0.88847,-0.56861 1.38601,-1.27938 0.49753,-0.74631 1.13723,-1.95462 h 1.42154 l -0.56862,3.44723 h 5.68616 l -0.39092,1.91908 h -5.61508 l -0.21324,1.20831 q -1.52815,9.16894 -1.52815,10.34171 0,1.17277 1.27938,1.17277 0.78185,0 1.70585,-0.462 0.924,-0.49754 2.16785,-1.35047 l 0.85293,1.20831 q -1.70585,1.35047 -3.05632,2.09677 -1.35046,0.71077 -3.16292,0.71077 z m 12.0831,0 q -1.42154,0 -2.16785,-0.7463 -0.71077,-0.78185 -0.71077,-2.16785 0,-1.1017 1.59923,-10.94586 l 0.17769,-1.06616 h -2.55877 l 0.21323,-1.17277 q 1.45708,-0.39092 2.34554,-0.95954 0.88847,-0.56861 1.38601,-1.27938 0.49753,-0.74631 1.13723,-1.95462 h 1.42154 l -0.56862,3.44723 h 5.68616 l -0.39092,1.91908 h -5.61509 l -0.21323,1.20831 q -1.52815,9.16894 -1.52815,10.34171 0,1.17277 1.27938,1.17277 0.78185,0 1.70585,-0.462 0.924,-0.49754 2.16785,-1.35047 l 0.85292,1.20831 q -1.70584,1.35047 -3.05631,2.09677 -1.35046,0.71077 -3.16292,0.71077 z m 14.14433,0 q -2.9497,0 -4.3357,-1.70584 -1.35046,-1.74139 -1.35046,-4.12247 0,-3.37616 1.10169,-5.93493 1.10169,-2.59431 3.09185,-3.98031 1.99016,-1.42154 4.54893,-1.42154 2.41662,0 3.62493,1.10169 1.24384,1.10169 1.24384,2.66539 0,1.70585 -1.35046,3.12739 -1.35046,1.42154 -3.73154,2.27446 -2.34554,0.81739 -5.29524,0.81739 v 0.81738 q 0,2.27447 0.85292,3.4117 0.85293,1.10169 2.31001,1.10169 1.99015,0 4.86877,-2.16785 l 1.03062,1.31493 q -1.10169,1.10169 -2.87862,1.91908 -1.77692,0.78184 -3.73154,0.78184 z m -2.27447,-8.92016 q 2.09677,0 3.69601,-0.56862 1.59923,-0.60415 2.48769,-1.63477 0.88847,-1.03061 0.88847,-2.34554 0,-0.85292 -0.53308,-1.45708 -0.49754,-0.60415 -1.45708,-0.60415 -1.95462,0 -3.30508,1.848 -1.31493,1.848 -1.77693,4.76216 z m 12.82943,5.61508 q 0.17769,-1.06615 0.88846,-5.61508 0.71077,-4.58447 0.71077,-5.04647 0,-0.56861 -0.28431,-0.78184 -0.28431,-0.24877 -0.88846,-0.24877 -0.24877,0 -1.10169,0.0711 l -0.1777,-1.13723 q 0.924,-0.39092 2.16785,-0.74631 1.24385,-0.35538 2.38108,-0.35538 0.42646,0 0.924,0.10661 l 0.39093,0.67523 -0.53308,3.55385 q 2.16785,-4.33569 4.83324,-4.33569 1.13723,0 1.88354,0.81738 0.7463,0.81739 0.7463,1.88354 0,1.06616 -0.63969,1.81247 -0.63969,0.74631 -1.77692,0.74631 -0.462,0 -0.78185,-0.1777 -0.28431,-0.21323 -0.39092,-0.42646 0.2843,-0.49754 0.2843,-1.27938 0,-0.99508 -0.67523,-0.99508 -0.74631,0 -1.67031,1.06615 -0.924,1.06616 -1.74138,3.19847 -0.81739,2.13231 -1.20831,5.11754 l -0.67523,5.15308 h -3.12739 z m 26.86707,3.30508 q -3.02078,0 -4.83324,-2.13231 -1.77693,-2.16784 -1.77693,-6.25477 0,-4.54893 1.27939,-8.13832 1.31493,-3.58939 3.90924,-5.65062 2.59431,-2.06123 6.36139,-2.06123 2.772,0 4.30016,1.2083 1.52815,1.17278 1.52815,2.91416 0,1.17277 -0.60415,2.13231 -0.60416,0.95954 -1.74139,0.95954 -0.71077,0 -1.24385,-0.39092 -0.49754,-0.39093 -0.53307,-0.99508 0.71077,-0.78185 0.71077,-1.74139 0,-0.924 -0.71077,-1.56369 -0.71077,-0.67523 -2.06124,-0.71077 -2.52323,0 -4.30016,2.06123 -1.74138,2.0257 -2.59431,5.36632 -0.85292,3.30508 -0.85292,7.17877 0,2.9497 1.03062,4.37124 1.06615,1.386 2.87861,1.386 1.59924,0 3.26955,-0.81738 1.70584,-0.81739 3.66046,-2.38108 l 1.13723,1.52815 q -2.48769,1.95462 -4.47785,2.84308 -1.95461,0.88846 -4.33569,0.88846 z m 11.55003,-3.30508 q 0.17769,-1.06615 0.88846,-5.61508 0.71077,-4.58447 0.71077,-5.04647 0,-0.56861 -0.28431,-0.78184 -0.28431,-0.24877 -0.88846,-0.24877 -0.24877,0 -1.10169,0.0711 l -0.1777,-1.13723 q 0.924,-0.39092 2.16785,-0.74631 1.24385,-0.35538 2.38108,-0.35538 0.42646,0 0.924,0.10661 l 0.39093,0.67523 -0.53308,3.55385 q 2.16785,-4.33569 4.83323,-4.33569 1.13724,0 1.88354,0.81738 0.74631,0.81739 0.74631,1.88354 0,1.06616 -0.63969,1.81247 -0.63969,0.74631 -1.77692,0.74631 -0.46201,0 -0.78185,-0.1777 -0.28431,-0.21323 -0.39093,-0.42646 0.28431,-0.49754 0.28431,-1.27938 0,-0.99508 -0.67523,-0.99508 -0.74631,0 -1.67031,1.06615 -0.924,1.06616 -1.74139,3.19847 -0.81738,2.13231 -1.2083,5.11754 l -0.67524,5.15308 h -3.12738 z m 17.94691,3.30508 q -2.94969,0 -4.33569,-1.70584 -1.35047,-1.74139 -1.35047,-4.12247 0,-3.37616 1.1017,-5.93493 1.10169,-2.59431 3.09185,-3.98031 1.99015,-1.42154 4.54892,-1.42154 2.41662,0 3.62493,1.10169 1.24385,1.10169 1.24385,2.66539 0,1.70585 -1.35046,3.12739 -1.35047,1.42154 -3.73155,2.27446 -2.34554,0.81739 -5.29523,0.81739 v 0.81738 q 0,2.27447 0.85292,3.4117 0.85292,1.10169 2.31,1.10169 1.99016,0 4.86878,-2.16785 l 1.03061,1.31493 q -1.10169,1.10169 -2.87861,1.91908 -1.77693,0.78184 -3.73155,0.78184 z m -2.27446,-8.92016 q 2.09677,0 3.696,-0.56862 1.59924,-0.60415 2.4877,-1.63477 0.88846,-1.03061 0.88846,-2.34554 0,-0.85292 -0.53308,-1.45708 -0.49754,-0.60415 -1.45708,-0.60415 -1.95461,0 -3.30508,1.848 -1.31492,1.848 -1.77692,4.76216 z m 16.38329,8.92016 q -2.20339,0 -3.37616,-1.42154 -1.13723,-1.42154 -1.13723,-4.76216 0,-3.05631 1.03061,-5.57954 1.06616,-2.52323 2.87862,-3.94477 1.81247,-1.45708 3.98031,-1.45708 1.17278,0 2.16785,0.24877 1.03062,0.21323 1.59924,0.49754 0.17769,-1.03062 0.49753,-2.91416 0.31985,-1.91908 0.35539,-2.31 0.10662,-1.45708 -2.09677,-1.45708 h -0.63969 l 0.21323,-1.386 q 2.34554,-0.49754 4.26462,-0.49754 0.462,0 1.31492,0.0711 l 0.42646,0.78185 -0.95954,5.93493 q -0.81738,4.97539 -1.52815,9.31109 -0.71077,4.3357 -0.924,5.93493 0,0.49754 0.67523,0.49754 0.74631,0 1.88354,-0.67523 l 0.35538,1.13723 q -0.81738,0.71077 -1.99015,1.35046 -1.17277,0.63969 -2.20339,0.63969 -1.848,0 -1.848,-1.59923 0,-0.63969 0.28431,-2.13231 -1.03062,1.5637 -2.38108,2.66539 -1.31493,1.06615 -2.84308,1.06615 z m 0.924,-1.848 q 0.95954,0 2.02569,-1.13723 1.06616,-1.13723 1.95462,-3.19847 0.924,-2.09677 1.35046,-4.76215 l 0.60416,-3.73155 q -1.35047,-0.88846 -2.66539,-0.88846 -1.56369,0 -2.84308,1.45708 -1.27939,1.45708 -1.99016,3.62493 -0.71077,2.16784 -0.71077,4.158 0,2.31 0.60416,3.4117 0.63969,1.06615 1.67031,1.06615 z m 15.17495,1.848 q -1.03062,0 -1.49262,-0.42646 -0.42646,-0.42646 -0.42646,-1.42154 0,-0.49754 0.462,-3.58939 0.49754,-3.12739 0.63969,-3.94477 0.71077,-4.26462 0.71077,-4.65554 0,-0.95954 -1.17277,-0.95954 -0.24877,0 -1.10169,0.0711 l -0.17769,-1.13723 q 0.74631,-0.35538 2.06123,-0.71077 1.35046,-0.39092 2.4877,-0.39092 0.53307,0 0.95953,0.10661 l 0.42647,0.67523 q -2.06124,12.3674 -2.06124,13.14925 0,0.462 0.10662,0.63969 0.14215,0.14216 0.56862,0.14216 0.39092,0 0.924,-0.24877 0.56861,-0.24877 0.88846,-0.42646 l 0.35538,1.13723 q -0.81738,0.71077 -1.99015,1.35046 -1.17277,0.63969 -2.16785,0.63969 z m 1.74139,-19.04863 q -0.74631,0 -1.20831,-0.462 -0.42647,-0.462 -0.42647,-1.20831 0,-1.03062 0.60416,-1.74139 0.60415,-0.71077 1.52815,-0.71077 0.78185,0 1.20831,0.462 0.42647,0.462 0.42647,1.24385 0,1.03062 -0.60416,1.74139 -0.60415,0.67523 -1.52815,0.67523 z m 8.5648,19.04863 q -1.42154,0 -2.16785,-0.7463 -0.71077,-0.78185 -0.71077,-2.16785 0,-1.1017 1.59923,-10.94586 l 0.17769,-1.06616 h -2.55877 l 0.21323,-1.17277 q 1.45708,-0.39092 2.34554,-0.95954 0.88847,-0.56861 1.38601,-1.27938 0.49753,-0.74631 1.13723,-1.95462 h 1.42154 l -0.56862,3.44723 h 5.68616 l -0.39092,1.91908 h -5.61508 l -0.21324,1.20831 q -1.52815,9.16894 -1.52815,10.34171 0,1.17277 1.27938,1.17277 0.78185,0 1.70585,-0.462 0.924,-0.49754 2.16785,-1.35047 l 0.85293,1.20831 q -1.70585,1.35047 -3.05632,2.09677 -1.35046,0.71077 -3.16292,0.71077 z m 14.21537,-1.56369 q 0.88846,-0.14215 1.45708,-0.28431 0.60416,-0.17769 1.13723,-0.53308 l 9.66648,-21.57187 h 2.31 l 3.62493,21.5008 q 0.53307,0.39092 1.10169,0.56861 0.60415,0.1777 1.42154,0.31985 l -0.14216,1.31492 h -9.4177 l 0.21323,-1.31492 q 2.06124,-0.24877 3.37616,-0.924 l -0.81738,-5.40185 h -6.61017 l -2.34554,5.43739 q 1.13723,0.60415 3.37616,0.88846 l -0.17769,1.31492 h -8.35155 z m 13.64679,-8.17386 -1.42154,-9.48878 -4.12247,9.48878 z m 14.78401,9.73755 q -5.97046,0 -5.97046,-6.14816 0,-3.16292 1.03061,-5.65062 1.03062,-2.52323 2.91416,-3.94477 1.88354,-1.42154 4.26462,-1.42154 2.38108,0 3.66046,1.03061 1.31493,1.03062 1.31493,2.59431 0,0.99508 -0.63969,1.77693 -0.6397,0.78185 -1.5637,0.78185 -0.67523,0 -1.10169,-0.35539 -0.39092,-0.35538 -0.462,-0.924 0.31984,-0.462 0.462,-0.85292 0.14215,-0.42647 0.14215,-0.99508 0,-0.63969 -0.42646,-1.03062 -0.42646,-0.42646 -1.13723,-0.42646 -1.42154,0 -2.66539,1.35046 -1.20831,1.35047 -1.91908,3.51831 -0.71077,2.13231 -0.71077,4.37124 0,2.23893 0.88846,3.37616 0.92401,1.10169 2.45216,1.10169 1.03062,0 2.23893,-0.56861 1.24384,-0.56862 2.34554,-1.38601 l 0.95954,1.31493 q -1.17277,1.03062 -2.77201,1.77692 -1.59923,0.71077 -3.30508,0.71077 z m 14.99729,0 q -5.97047,0 -5.97047,-6.14816 0,-3.16292 1.03062,-5.65062 1.03061,-2.52323 2.91415,-3.94477 1.88354,-1.42154 4.26462,-1.42154 2.38108,0 3.66047,1.03061 1.31492,1.03062 1.31492,2.59431 0,0.99508 -0.63969,1.77693 -0.63969,0.78185 -1.56369,0.78185 -0.67524,0 -1.1017,-0.35539 -0.39092,-0.35538 -0.462,-0.924 0.31985,-0.462 0.462,-0.85292 0.14216,-0.42647 0.14216,-0.99508 0,-0.63969 -0.42647,-1.03062 -0.42646,-0.42646 -1.13723,-0.42646 -1.42154,0 -2.66538,1.35046 -1.20831,1.35047 -1.91908,3.51831 -0.71077,2.13231 -0.71077,4.37124 0,2.23893 0.88846,3.37616 0.924,1.10169 2.45216,1.10169 1.03061,0 2.23892,-0.56861 1.24385,-0.56862 2.34554,-1.38601 l 0.95954,1.31493 q -1.17277,1.03062 -2.772,1.77692 -1.59923,0.71077 -3.30508,0.71077 z m 14.67742,0 q -2.9497,0 -4.3357,-1.70584 -1.35046,-1.74139 -1.35046,-4.12247 0,-3.37616 1.10169,-5.93493 1.1017,-2.59431 3.09185,-3.98031 1.99016,-1.42154 4.54893,-1.42154 2.41662,0 3.62493,1.10169 1.24385,1.10169 1.24385,2.66539 0,1.70585 -1.35047,3.12739 -1.35046,1.42154 -3.73154,2.27446 -2.34554,0.81739 -5.29524,0.81739 v 0.81738 q 0,2.27447 0.85293,3.4117 0.85292,1.10169 2.31,1.10169 1.99016,0 4.86877,-2.16785 l 1.03062,1.31493 q -1.10169,1.10169 -2.87862,1.91908 -1.77692,0.78184 -3.73154,0.78184 z m -2.27446,-8.92016 q 2.09677,0 3.696,-0.56862 1.59923,-0.60415 2.48769,-1.63477 0.88847,-1.03061 0.88847,-2.34554 0,-0.85292 -0.53308,-1.45708 -0.49754,-0.60415 -1.45708,-0.60415 -1.95462,0 -3.30508,1.848 -1.31492,1.848 -1.77692,4.76216 z m 15.17495,8.92016 q -1.27939,0 -2.62985,-0.42646 -1.31492,-0.42646 -1.95462,-0.95954 l 1.06616,-4.37123 1.27938,0.21323 q -0.0711,0.71077 -0.0711,1.27938 0,1.27939 0.67523,1.91908 0.71077,0.6397 2.16785,0.6397 1.17277,0 1.848,-0.6397 0.67523,-0.63969 0.67523,-1.59923 0,-0.81739 -0.53308,-1.45708 -0.53307,-0.67523 -1.17277,-1.24385 -0.63969,-0.56861 -0.85292,-0.7463 -1.35046,-1.17278 -2.09677,-2.23893 -0.74631,-1.06616 -0.74631,-2.4877 0,-2.34554 1.59923,-3.696 1.59923,-1.35046 4.01585,-1.35046 2.0257,0 3.23401,0.924 1.20831,0.88846 1.20831,2.23892 0,0.99508 -0.56862,1.59924 -0.53308,0.60415 -1.45708,0.60415 -0.56862,0 -1.03062,-0.24877 -0.462,-0.24877 -0.63969,-0.71077 0.78185,-0.49754 0.78185,-1.31492 0,-1.49262 -1.95462,-1.49262 -1.03062,0 -1.70585,0.63969 -0.63969,0.6397 -0.63969,1.63477 0,0.92401 0.63969,1.67031 0.6397,0.74631 1.88354,1.77693 1.49262,1.24385 2.23893,2.23892 0.78185,0.95954 0.78185,2.38108 0,1.45708 -0.78185,2.66539 -0.78185,1.20831 -2.16785,1.88354 -1.386,0.67523 -3.09185,0.67523 z m 12.90051,0 q -1.27938,0 -2.62985,-0.42646 -1.31492,-0.42646 -1.95461,-0.95954 l 1.06615,-4.37123 1.27939,0.21323 q -0.0711,0.71077 -0.0711,1.27938 0,1.27939 0.67523,1.91908 0.71077,0.6397 2.16785,0.6397 1.17277,0 1.848,-0.6397 0.67523,-0.63969 0.67523,-1.59923 0,-0.81739 -0.53307,-1.45708 -0.53308,-0.67523 -1.17277,-1.24385 -0.6397,-0.56861 -0.85293,-0.7463 -1.35046,-1.17278 -2.09677,-2.23893 -0.74631,-1.06616 -0.74631,-2.4877 0,-2.34554 1.59923,-3.696 1.59924,-1.35046 4.01586,-1.35046 2.02569,0 3.234,0.924 1.20831,0.88846 1.20831,2.23892 0,0.99508 -0.56862,1.59924 -0.53308,0.60415 -1.45708,0.60415 -0.56861,0 -1.03061,-0.24877 -0.462,-0.24877 -0.6397,-0.71077 0.78185,-0.49754 0.78185,-1.31492 0,-1.49262 -1.95462,-1.49262 -1.03061,0 -1.70584,0.63969 -0.6397,0.6397 -0.6397,1.63477 0,0.92401 0.6397,1.67031 0.63969,0.74631 1.88354,1.77693 1.49261,1.24385 2.23892,2.23892 0.78185,0.95954 0.78185,2.38108 0,1.45708 -0.78185,2.66539 -0.78185,1.20831 -2.16785,1.88354 -1.386,0.67523 -3.09185,0.67523 z"
       id="text28"
       style="font-style:italic;font-size:35.5385px;font-family:Caladea;-inkscape-font-specification:'Caladea, Italic';fill:#000000;stroke-width:0.532513;fill-opacity:1"
       aria-label="Better Credit Access"
       transform="scale(0.86919835,1.1504854)" />
    <path
       d="m 440.41981,112.35165 -0.84734,6.91994 h -18.2178 l -6.73164,54.93584 H 406.385 l 6.68457,-54.93584 h -18.2178 l 0.80027,-6.91994 z"
       id="text9"
       style="font-style:italic;font-size:96.4084px;font-family:Carlito;-inkscape-font-specification:'Carlito, Italic';fill:#000000;stroke-width:0.721365;fill-opacity:1"
       aria-label="T"
       transform="scale(0.98210612,1.0182199)" />
    <path
       d="m 378.71913,173.08913 h -8.37924 l 7.57898,-61.85578 h 8.33217 z"
       id="text10"
       style="font-style:italic;font-size:96.4084px;font-family:Carlito;-inkscape-font-specification:'Carlito, Italic';fill:#000000;stroke-width:0.721365;fill-opacity:1"
       aria-label="I"
       transform="scale(0.98210612,1.0182199)" />
    <path
       d="m 320.10754,117.081 h -27.63268 l -2.54202,20.71274 h 22.31327 l -0.80026,6.49627 h -22.31327 l -2.5891,21.27764 h 27.67976 l -0.80027,6.68456 H 277.3169 l 7.62605,-61.85578 h 36.01193 z"
       id="text13"
       style="font-style:italic;font-size:96.4084px;font-family:Carlito;-inkscape-font-specification:'Carlito, Italic';fill:#000000;stroke-width:0.721365;fill-opacity:1"
       aria-label="E"
       transform="scale(0.98210612,1.0182199)" />
    <path
       d="m 238.67812,146.98335 -3.15399,25.89093 h -8.23802 l 7.57898,-61.85578 h 16.66434 q 5.03696,0 8.70877,1.03564 3.71888,1.03564 6.11967,3.01276 2.4008,1.93005 3.53058,4.66037 1.17686,2.73031 1.17686,6.11967 0,3.71888 -1.17686,6.96702 -1.12978,3.20106 -3.24813,5.79015 -2.11835,2.54202 -5.17819,4.37792 -3.01276,1.78883 -6.82579,2.68324 1.45931,1.03564 2.4008,2.63617 l 13.6045,24.57284 h -7.39068 q -2.16542,0 -3.15399,-1.78882 l -11.86275,-22.12498 q -0.51782,-1.08271 -1.31808,-1.50638 -0.75319,-0.47075 -2.4008,-0.47075 z m 3.62473,-29.51565 -2.87154,23.5372 h 8.04972 q 3.71888,0 6.59042,-1.03563 2.87154,-1.03564 4.80159,-2.87154 1.97712,-1.88298 2.96569,-4.425 0.98856,-2.54202 0.98856,-5.55478 0,-4.70744 -3.05984,-7.15531 -3.01276,-2.49494 -9.03828,-2.49494 z"
       id="text14"
       style="font-style:italic;font-size:96.4084px;font-family:Carlito;-inkscape-font-specification:'Carlito, Italic';fill:#000000;stroke-width:0.721365;fill-opacity:1"
       aria-label="R"
       transform="scale(0.98210612,1.0182199)" />
    <path
       d="m 200.02523,166.42509 q 4.00133,0 6.6375,-0.94149 2.63616,-0.98856 4.33084,-2.16542 1.69468,-1.17686 2.68324,-2.11835 0.98857,-0.98856 1.69468,-0.98856 0.80027,0 1.03564,0.47074 l 2.96569,3.57765 q -3.8601,4.425 -8.99121,6.87287 -5.08404,2.40079 -11.76861,2.40079 -5.27233,0 -9.46196,-1.93005 -4.14254,-1.97712 -7.01408,-5.5077 -2.87154,-3.53058 -4.425,-8.42632 -1.50638,-4.89574 -1.50638,-10.73297 0,-8.0968 2.4008,-14.82844 2.44787,-6.77872 6.63749,-11.58031 4.2367,-4.84866 9.9327,-7.5319 5.696,-2.68324 12.19227,-2.68324 3.15399,0 5.69601,0.56489 2.54202,0.56489 4.61329,1.6476 2.11835,1.03564 3.81303,2.5891 1.74175,1.50638 3.15398,3.38935 l -2.82446,3.43644 q -0.3766,0.42367 -0.80027,0.70611 -0.42367,0.28245 -1.08271,0.28245 -0.51782,0 -1.03564,-0.3766 -0.51781,-0.42367 -1.22393,-1.03563 -0.65904,-0.61197 -1.55346,-1.27101 -0.89441,-0.70612 -2.16542,-1.31809 -1.27101,-0.61196 -3.01276,-0.98856 -1.74175,-0.42367 -4.0484,-0.42367 -4.66037,0 -8.75584,2.0242 -4.0484,1.97713 -7.06116,5.74308 -2.96569,3.71888 -4.70745,9.03829 -1.69467,5.31941 -1.69467,11.90982 0,4.70745 1.12978,8.4734 1.12979,3.71888 3.15399,6.35504 2.07127,2.5891 4.89574,4.00133 2.82446,1.36516 6.16674,1.36516 z"
       id="text15"
       style="font-style:italic;font-size:96.4084px;font-family:Carlito;-inkscape-font-specification:'Carlito, Italic';fill:#000000;stroke-width:0.721365;fill-opacity:1"
       aria-label="C"
       transform="scale(0.98210612,1.0182199)" />
  </g>
</svg>
