<?xml version="1.0" encoding="UTF-8" standalone="no"?>
<!-- Created with Inkscape (http://www.inkscape.org/) -->

<svg
   width="500mm"
   height="250mm"
   viewBox="0 0 500 250"
   version="1.1"
   id="svg1"
   inkscape:version="1.4.2 (f4327f4, 2025-05-13)"
   sodipodi:docname="5pointcreditLogoNew.svg"
   inkscape:export-filename="5pointcreditLogoBG-black1.pdf"
   inkscape:export-xdpi="96"
   inkscape:export-ydpi="96"
   xmlns:inkscape="http://www.inkscape.org/namespaces/inkscape"
   xmlns:sodipodi="http://sodipodi.sourceforge.net/DTD/sodipodi-0.dtd"
   xmlns="http://www.w3.org/2000/svg"
   xmlns:svg="http://www.w3.org/2000/svg">
  <sodipodi:namedview
     id="namedview1"
     pagecolor="#000080"
     bordercolor="#000000"
     borderopacity="0.25"
     inkscape:showpageshadow="2"
     inkscape:pageopacity="0.0"
     inkscape:pagecheckerboard="0"
     inkscape:deskcolor="#d1d1d1"
     inkscape:document-units="mm"
     inkscape:zoom="0.30879029"
     inkscape:cx="829.04162"
     inkscape:cy="338.41738"
     inkscape:window-width="1920"
     inkscape:window-height="1051"
     inkscape:window-x="-9"
     inkscape:window-y="-9"
     inkscape:window-maximized="1"
     inkscape:current-layer="layer1"
     inkscape:export-bgcolor="#000000ff" />
  <defs
     id="defs1" />
  <g
     inkscape:label="Layer 1"
     inkscape:groupmode="layer"
     id="layer1">
    <text
       xml:space="preserve"
       style="font-style:normal;font-variant:normal;font-weight:normal;font-stretch:normal;font-size:48.9027px;font-family:Vazirmatn;-inkscape-font-specification:'Vazirmatn, @wght=900';font-variant-ligatures:normal;font-variant-caps:normal;font-variant-numeric:normal;font-variant-east-asian:normal;font-variation-settings:'wght' 900;text-align:start;writing-mode:lr-tb;direction:ltr;text-anchor:start;fill:#0000ff;fill-opacity:1;stroke-width:0.264583"
       x="45.103966"
       y="270.9281"
       id="text6"><tspan
         sodipodi:role="line"
         id="tspan6"
         style="stroke-width:0.264583"
         x="45.103966"
         y="270.9281" /></text>
    <text
       xml:space="preserve"
       style="font-style:normal;font-variant:normal;font-weight:normal;font-stretch:normal;font-size:48.9027px;font-family:Vazirmatn;-inkscape-font-specification:'Vazirmatn, @wght=900';font-variant-ligatures:normal;font-variant-caps:normal;font-variant-numeric:normal;font-variant-east-asian:normal;font-variation-settings:'wght' 900;text-align:start;writing-mode:lr-tb;direction:ltr;text-anchor:start;fill:#000000;fill-opacity:1;stroke-width:0.264583"
       x="51.920906"
       y="262.97501"
       id="text7"><tspan
         sodipodi:role="line"
         id="tspan7"
         x="51.920906"
         y="262.97501" /></text>
    <g
       id="layer1-1"
       transform="matrix(1.5947996,0.20278293,-0.1781477,1.5704317,111.44958,-163.0933)">
      <g
         id="Objects"
         transform="matrix(-2.0388018e-4,0.0212057,-0.0221302,-1.953635e-4,184.79807,152.57474)">
        <g
           id="g6">
          <path
             style="fill:#ffffff"
             d="m 182.071,1547.467 c 0,-506.958 410.971,-917.929 917.929,-917.929 506.958,0 917.929,410.971 917.929,917.929 z"
             id="path1" />
          <path
             style="fill:#e24242;fill-opacity:1"
             d="M 831.075,1044.578 C 670.348,1137.57 562.224,1311.352 562.224,1510.379 H 182.071 c 0,-339.726 184.562,-636.356 458.89,-795.081 z"
             id="path2" />
          <path
             style="fill:#ffc648"
             d="m 1559.039,715.298 -190.101,329.28 C 1289.829,998.799 1197.974,972.602 1100,972.602 c -97.974,0 -189.817,26.197 -268.925,71.976 L 640.962,715.298 C 775.999,637.166 932.77,592.45 1100,592.45 c 167.23,0 324.001,44.716 459.039,122.848 z"
             id="path3" />
          <path
             style="fill:#72bf58;fill-opacity:1"
             d="m 2017.929,1510.379 h -380.152 c 0,-199.027 -108.124,-372.809 -268.839,-465.801 l 190.101,-329.28 c 274.327,158.725 458.89,455.355 458.89,795.081 z"
             id="path4" />
          <path
             style="fill:#000000;fill-opacity:0"
             d="M 1979.951,1138.633 C 1931.848,1024.909 1862.987,922.781 1775.299,835.08 1687.598,747.379 1585.47,678.531 1471.746,630.428 1353.979,580.619 1228.906,555.362 1100,555.362 c -128.906,0 -253.979,25.257 -371.746,75.066 -113.724,48.104 -215.852,116.951 -303.553,204.652 -87.688,87.701 -156.549,189.829 -204.652,303.553 -49.809,117.767 -75.066,242.84 -75.066,371.746 0,20.485 16.603,37.088 37.088,37.088 h 825.159 v -74.176 H 219.913 c 4.352,-105.825 27.322,-208.521 68.452,-305.766 44.357,-104.885 107.877,-199.089 188.79,-279.99 80.901,-80.914 175.105,-144.433 279.99,-188.79 108.569,-45.927 223.925,-69.206 342.854,-69.206 118.929,0 234.285,23.279 342.854,69.206 104.885,44.357 199.088,107.877 279.99,188.79 80.914,80.901 144.433,175.105 188.79,279.99 41.131,97.245 64.1,199.942 68.452,305.766 H 1192.77 v 74.176 h 825.159 c 20.485,0 37.088,-16.603 37.088,-37.088 0,-128.906 -25.257,-253.979 -75.066,-371.746 z"
             id="path5" />
          <path
             style="fill:#2d2d2d"
             d="M 1014.2603,1380.0174 C 687.0861,1229.2057 428.42802,1131.5787 415.05764,1155.9585 c -13.37038,24.3799 223.09235,162.478 545.9584,321.1454 0.2213,47.2156 29.93514,93.8571 80.68736,118.02 70.6941,33.657 155.4173,10.9469 189.241,-50.7278 33.8237,-61.6746 3.9361,-138.9502 -66.7591,-172.6076 -50.7527,-24.1619 -108.7293,-19.2684 -149.925,8.2289 z m 139.66,127.7091 c -13.4717,24.5644 -47.2077,33.6083 -75.3657,20.2025 -28.1572,-13.4056 -40.0591,-44.1763 -26.587,-68.7415 13.4721,-24.5653 47.2075,-33.6084 75.3658,-20.2024 28.158,13.4059 40.0585,44.177 26.5869,68.7414 z"
             id="path6" />
        </g>
      </g>
    </g>
    <text
       xml:space="preserve"
       style="font-style:italic;font-variant:normal;font-weight:normal;font-stretch:normal;font-size:223.244px;font-family:Carlito;-inkscape-font-specification:'Carlito, Italic';font-variant-ligatures:normal;font-variant-caps:normal;font-variant-numeric:normal;font-variant-east-asian:normal;text-align:start;writing-mode:lr-tb;direction:ltr;text-anchor:start;fill:#72bf58;fill-opacity:1;stroke-width:18.6039"
       x="32.623234"
       y="195.1581"
       id="text3"
       transform="matrix(1.0970303,-0.05628356,0.051661,0.90890136,0,0)"><tspan
         sodipodi:role="line"
         id="tspan3"
         style="font-style:italic;font-variant:normal;font-weight:normal;font-stretch:normal;font-size:223.244px;font-family:Carlito;-inkscape-font-specification:'Carlito, Italic';font-variant-ligatures:normal;font-variant-caps:normal;font-variant-numeric:normal;font-variant-east-asian:normal;fill:#72bf58;fill-opacity:1;stroke-width:18.6039"
         x="32.623234"
         y="195.1581">5</tspan></text>
    <text
       xml:space="preserve"
       style="font-style:italic;font-variant:normal;font-weight:normal;font-stretch:normal;font-size:95.8079px;font-family:Carlito;-inkscape-font-specification:'Carlito, Italic';font-variant-ligatures:normal;font-variant-caps:normal;font-variant-numeric:normal;font-variant-east-asian:normal;text-align:start;writing-mode:lr-tb;direction:ltr;text-anchor:start;fill:#ffffff;fill-opacity:1;stroke-width:0.716873"
       x="167.59111"
       y="104.47552"
       id="text12"
       transform="scale(1.0457898,0.9562151)"><tspan
         sodipodi:role="line"
         id="tspan12"
         style="stroke-width:0.716873"
         x="167.59111"
         y="104.47552">POINT</tspan></text>
    <text
       xml:space="preserve"
       style="font-style:italic;font-variant:normal;font-weight:normal;font-stretch:normal;font-size:27.5071px;font-family:Caladea;-inkscape-font-specification:'Caladea, Italic';font-variant-ligatures:normal;font-variant-caps:normal;font-variant-numeric:normal;font-variant-east-asian:normal;text-align:start;writing-mode:lr-tb;direction:ltr;text-anchor:start;fill:#ffffff;fill-opacity:1;stroke-width:0.41217"
       x="190.42281"
       y="189.52612"
       id="text28"
       transform="scale(0.89773442,1.1139152)"><tspan
         sodipodi:role="line"
         id="tspan28"
         style="font-style:italic;font-variant:normal;font-weight:normal;font-stretch:normal;font-size:27.5071px;font-family:Caladea;-inkscape-font-specification:'Caladea, Italic';font-variant-ligatures:normal;font-variant-caps:normal;font-variant-numeric:normal;font-variant-east-asian:normal;stroke-width:0.41217"
         x="190.42281"
         y="189.52612">Enabling Better Credit Access</tspan></text>
    <text
       x="386.55429"
       y="172.95691"
       style="font-style:italic;font-variant:normal;font-weight:normal;font-stretch:normal;font-size:96.4084px;font-family:Carlito;-inkscape-font-specification:'Carlito, Italic';text-align:start;writing-mode:lr-tb;text-anchor:start;fill:#ffffff;fill-opacity:1;stroke-width:0.721365"
       transform="scale(0.98210612,1.0182199)"
       id="text9"><tspan
         x="386.55429"
         y="172.95691"
         id="tspan9"
         style="stroke-width:0.721365">T</tspan></text>
    <text
       x="361.90118"
       y="171.83861"
       style="font-style:italic;font-variant:normal;font-weight:normal;font-stretch:normal;font-size:96.4084px;font-family:Carlito;-inkscape-font-specification:'Carlito, Italic';text-align:start;writing-mode:lr-tb;text-anchor:start;fill:#ffffff;fill-opacity:1;stroke-width:0.721365"
       transform="scale(0.98210612,1.0182199)"
       id="text10"><tspan
         x="361.90118"
         y="171.83861"
         id="tspan10"
         style="stroke-width:0.721365">I</tspan></text>
    <text
       x="270.05505"
       y="171.00169"
       style="font-style:italic;font-variant:normal;font-weight:normal;font-stretch:normal;font-size:96.4084px;font-family:Carlito;-inkscape-font-specification:'Carlito, Italic';text-align:start;writing-mode:lr-tb;text-anchor:start;fill:#ffffff;fill-opacity:1;stroke-width:0.721365"
       transform="scale(0.98210612,1.0182199)"
       id="text13"><tspan
         x="270.05505"
         y="171.00169"
         id="tspan13"
         style="stroke-width:0.721365">E</tspan></text>
    <text
       x="219.27106"
       y="171.62376"
       style="font-style:italic;font-variant:normal;font-weight:normal;font-stretch:normal;font-size:96.4084px;font-family:Carlito;-inkscape-font-specification:'Carlito, Italic';text-align:start;writing-mode:lr-tb;text-anchor:start;fill:#ffffff;fill-opacity:1;stroke-width:0.721365"
       transform="scale(0.98210612,1.0182199)"
       id="text14"><tspan
         x="219.27106"
         y="171.62376"
         id="tspan14"
         style="stroke-width:0.721365">R</tspan></text>
    <text
       x="169.13202"
       y="171.62376"
       style="font-style:italic;font-variant:normal;font-weight:normal;font-stretch:normal;font-size:96.4084px;font-family:Carlito;-inkscape-font-specification:'Carlito, Italic';text-align:start;writing-mode:lr-tb;text-anchor:start;fill:#ffffff;fill-opacity:1;stroke-width:0.721365"
       transform="scale(0.98210612,1.0182199)"
       id="text15"><tspan
         x="169.13202"
         y="171.62376"
         id="tspan15"
         style="stroke-width:0.721365">C</tspan></text>
  </g>
</svg>
